ffmpeg version 2022-04-14-git-ea84eb2db1-essentials_build-www.gyan.dev Copyright (c) 2000-2022 the FFmpeg developers
  built with gcc 11.2.0 (Rev10, Built by MSYS2 project)
  configuration: --enable-gpl --enable-version3 --enable-static --disable-w32threads --disable-autodetect --enable-fontconfig --enable-iconv --enable-gnutls --enable-libxml2 --enable-gmp --enable-bzlib --enable-lzma --enable-zlib --enable-libsrt --enable-libssh --enable-libzmq --enable-avisynth --enable-sdl2 --enable-libwebp --enable-libx264 --enable-libx265 --enable-libxvid --enable-libaom --enable-libopenjpeg --enable-libvpx --enable-mediafoundation --enable-libass --enable-libfreetype --enable-libfribidi --enable-libvidstab --enable-libvmaf --enable-libzimg --enable-amf --enable-cuda-llvm --enable-cuvid --enable-ffnvcodec --enable-nvdec --enable-nvenc --enable-d3d11va --enable-dxva2 --enable-libmfx --enable-libgme --enable-libopenmpt --enable-libopencore-amrwb --enable-libmp3lame --enable-libtheora --enable-libvo-amrwbenc --enable-libgsm --enable-libopencore-amrnb --enable-libopus --enable-libspeex --enable-libvorbis --enable-librubberband
  libavutil      57. 24.101 / 57. 24.101
  libavcodec     59. 26.100 / 59. 26.100
  libavformat    59. 22.100 / 59. 22.100
  libavdevice    59.  6.100 / 59.  6.100
  libavfilter     8. 31.100 /  8. 31.100
  libswscale      6.  6.100 /  6.  6.100
  libswresample   4.  6.100 /  4.  6.100
  libpostproc    56.  5.100 / 56.  5.100
Splitting the commandline.
Reading option '-v' ... matched as option 'v' (set logging level) with argument 'debug'.
Reading option '-nostdin' ... matched as option 'stdin' (enable or disable interaction on standard input) with argument 0.
Reading option '-progress' ... matched as option 'progress' (write program-readable progress information) with argument 'C:/Users/pedro/AppData/Local/Temp/KritaFFmpegProgress.pReYtB'.
Reading option '-r' ... matched as option 'r' (set frame rate (Hz value, fraction or abbreviation)) with argument '12'.
Reading option '-start_number' ... matched as AVOption 'start_number' with argument '18'.
Reading option '-i' ... matched as input url with argument 'C:/Users/pedro/DEV/jump-tales/characters/murasaki/gifs/frame%04d.png'.
Reading option '-vf' ... matched as option 'vf' (set video filters) with argument 'palettegen'.
Reading option '-y' ... matched as option 'y' (overwrite output files) with argument '1'.
Reading option 'C:/Users/pedro/DEV/jump-tales/characters/murasaki/gifs/palette.png' ... matched as output url.
Finished splitting the commandline.
Parsing a group of options: global .
Applying option v (set logging level) with argument debug.
Applying option nostdin (enable or disable interaction on standard input) with argument 0.
Applying option progress (write program-readable progress information) with argument C:/Users/pedro/AppData/Local/Temp/KritaFFmpegProgress.pReYtB.
[file @ 00000222b4e5c980] Setting default whitelist 'file,crypto,data'
Applying option y (overwrite output files) with argument 1.
Successfully parsed a group of options.
Parsing a group of options: input url C:/Users/pedro/DEV/jump-tales/characters/murasaki/gifs/frame%04d.png.
Applying option r (set frame rate (Hz value, fraction or abbreviation)) with argument 12.
Successfully parsed a group of options.
Opening an input file: C:/Users/pedro/DEV/jump-tales/characters/murasaki/gifs/frame%04d.png.
[image2 @ 00000222b4e9ce80] Opening 'C:/Users/pedro/DEV/jump-tales/characters/murasaki/gifs/frame0018.png' for reading
[file @ 00000222b4ea1b80] Setting default whitelist 'file,crypto,data'
[AVIOContext @ 00000222b4ea9d40] Statistics: 5356 bytes read, 0 seeks
[image2 @ 00000222b4e9ce80] Opening 'C:/Users/pedro/DEV/jump-tales/characters/murasaki/gifs/frame0019.png' for reading
[file @ 00000222b4eab580] Setting default whitelist 'file,crypto,data'
[AVIOContext @ 00000222b4f00c40] Statistics: 5310 bytes read, 0 seeks
[image2 @ 00000222b4e9ce80] Opening 'C:/Users/pedro/DEV/jump-tales/characters/murasaki/gifs/frame0020.png' for reading
[file @ 00000222b4f02300] Setting default whitelist 'file,crypto,data'
[AVIOContext @ 00000222b4f00c40] Statistics: 5273 bytes read, 0 seeks
[image2 @ 00000222b4e9ce80] Opening 'C:/Users/pedro/DEV/jump-tales/characters/murasaki/gifs/frame0021.png' for reading
[file @ 00000222b4f02300] Setting default whitelist 'file,crypto,data'
[AVIOContext @ 00000222b4f00c40] Statistics: 5269 bytes read, 0 seeks
[image2 @ 00000222b4e9ce80] Opening 'C:/Users/pedro/DEV/jump-tales/characters/murasaki/gifs/frame0022.png' for reading
[file @ 00000222b4f02640] Setting default whitelist 'file,crypto,data'
[AVIOContext @ 00000222b4f00c40] Statistics: 5256 bytes read, 0 seeks
[image2 @ 00000222b4e9ce80] Opening 'C:/Users/pedro/DEV/jump-tales/characters/murasaki/gifs/frame0023.png' for reading
[file @ 00000222b4ea9900] Setting default whitelist 'file,crypto,data'
[AVIOContext @ 00000222b4f00c40] Statistics: 5217 bytes read, 0 seeks
[image2 @ 00000222b4e9ce80] Opening 'C:/Users/pedro/DEV/jump-tales/characters/murasaki/gifs/frame0024.png' for reading
[file @ 00000222b4ea9b00] Setting default whitelist 'file,crypto,data'
[AVIOContext @ 00000222b4f00c40] Statistics: 5300 bytes read, 0 seeks
[image2 @ 00000222b4e9ce80] Opening 'C:/Users/pedro/DEV/jump-tales/characters/murasaki/gifs/frame0025.png' for reading
[file @ 00000222b4ea9cc0] Setting default whitelist 'file,crypto,data'
[AVIOContext @ 00000222b4f00c40] Statistics: 5425 bytes read, 0 seeks
Input #0, image2, from 'C:/Users/pedro/DEV/jump-tales/characters/murasaki/gifs/frame%04d.png':
  Duration: 00:00:00.32, start: 0.000000, bitrate: N/A
  Stream #0:0, 8, 1/25: Video: png, 1 reference frame, rgba(pc), 258x258 [SAR 3779:3779 DAR 1:1], 0/1, 25 fps, 25 tbr, 25 tbn
Successfully opened the file.
Parsing a group of options: output url C:/Users/pedro/DEV/jump-tales/characters/murasaki/gifs/palette.png.
Applying option vf (set video filters) with argument palettegen.
Successfully parsed a group of options.
Opening an output file: C:/Users/pedro/DEV/jump-tales/characters/murasaki/gifs/palette.png.
Successfully opened the file.
detected 4 logical cores
Stream mapping:
  Stream #0:0 -> #0:0 (png (native) -> png (native))
cur_dts is invalid st:0 (0) [init:0 i_done:0 finish:0] (this is harmless if it occurs once at the start per stream)
    Last message repeated 4 times
[graph 0 input from stream 0:0 @ 00000222b4ee8680] Setting 'video_size' to value '258x258'
[graph 0 input from stream 0:0 @ 00000222b4ee8680] Setting 'pix_fmt' to value '26'
[graph 0 input from stream 0:0 @ 00000222b4ee8680] Setting 'time_base' to value '1/12'
[graph 0 input from stream 0:0 @ 00000222b4ee8680] Setting 'pixel_aspect' to value '3779/3779'
[graph 0 input from stream 0:0 @ 00000222b4ee8680] Setting 'frame_rate' to value '12/1'
[graph 0 input from stream 0:0 @ 00000222b4ee8680] w:258 h:258 pixfmt:rgba tb:1/12 fr:12/1 sar:3779/3779
[format @ 00000222b4ee9e00] Setting 'pix_fmts' to value 'rgb24|rgba|rgb48be|rgba64be|pal8|gray|ya8|gray16be|ya16be|monob'
[auto_scale_0 @ 00000222b4eeb640] w:iw h:ih flags:'' interl:0
[Parsed_palettegen_0 @ 00000222b4ee8580] auto-inserting filter 'auto_scale_0' between the filter 'graph 0 input from stream 0:0' and the filter 'Parsed_palettegen_0'
[auto_scale_1 @ 00000222b4eebb80] w:iw h:ih flags:'' interl:0
[format @ 00000222b4ee9e00] auto-inserting filter 'auto_scale_1' between the filter 'Parsed_palettegen_0' and the filter 'format'
[AVFilterGraph @ 00000222b5089680] query_formats: 4 queried, 3 merged, 2 already done, 0 delayed
[auto_scale_1 @ 00000222b4eebb80] picking rgba out of 10 ref:bgra alpha:1
[swscaler @ 00000222b4f06fc0] [swscaler @ 00000222b4f13f80] Forcing full internal H chroma due to input having non subsampled chroma
[swscaler @ 00000222b4f06fc0] [swscaler @ 00000222b5089f80] Forcing full internal H chroma due to input having non subsampled chroma
[swscaler @ 00000222b4f06fc0] [swscaler @ 00000222b5096f80] Forcing full internal H chroma due to input having non subsampled chroma
[swscaler @ 00000222b4f06fc0] [swscaler @ 00000222b50add40] Forcing full internal H chroma due to input having non subsampled chroma
[swscaler @ 00000222b4f06fc0] [swscaler @ 00000222b50c2cc0] Forcing full internal H chroma due to input having non subsampled chroma
[auto_scale_0 @ 00000222b4eeb640] w:258 h:258 fmt:rgba sar:3779/3779 -> w:258 h:258 fmt:bgra sar:1/1 flags:0x0
[swscaler @ 00000222b50e2080] [swscaler @ 00000222b50ef040] Forcing full internal H chroma due to input having non subsampled chroma
[swscaler @ 00000222b50e2080] [swscaler @ 00000222b5104080] Forcing full internal H chroma due to input having non subsampled chroma
[swscaler @ 00000222b50e2080] [swscaler @ 00000222b5117080] Forcing full internal H chroma due to input having non subsampled chroma
[swscaler @ 00000222b50e2080] [swscaler @ 00000222b61400c0] Forcing full internal H chroma due to input having non subsampled chroma
[swscaler @ 00000222b50e2080] [swscaler @ 00000222b61530c0] Forcing full internal H chroma due to input having non subsampled chroma
[auto_scale_1 @ 00000222b4eebb80] w:16 h:16 fmt:bgra sar:1/1 -> w:16 h:16 fmt:rgba sar:1/1 flags:0x0
[swscaler @ 00000222b4f06fc0] [swscaler @ 00000222b4f13f80] Forcing full internal H chroma due to input having non subsampled chroma
[swscaler @ 00000222b4f06fc0] [swscaler @ 00000222b5089f80] Forcing full internal H chroma due to input having non subsampled chroma
[swscaler @ 00000222b4f06fc0] [swscaler @ 00000222b509ef80] Forcing full internal H chroma due to input having non subsampled chroma
[swscaler @ 00000222b4f06fc0] [swscaler @ 00000222b50b1f80] Forcing full internal H chroma due to input having non subsampled chroma
[swscaler @ 00000222b4f06fc0] [swscaler @ 00000222b50c4fc0] Forcing full internal H chroma due to input having non subsampled chroma
[auto_scale_0 @ 00000222b4eeb640] w:258 h:258 fmt:rgba sar:3779/3779 -> w:258 h:258 fmt:bgra sar:1/1 flags:0x0
[swscaler @ 00000222b5089f80] [swscaler @ 00000222b4f06fc0] Forcing full internal H chroma due to input having non subsampled chroma
[swscaler @ 00000222b5089f80] [swscaler @ 00000222b4f13f80] Forcing full internal H chroma due to input having non subsampled chroma
[swscaler @ 00000222b5089f80] [swscaler @ 00000222b509ef80] Forcing full internal H chroma due to input having non subsampled chroma
[swscaler @ 00000222b5089f80] [swscaler @ 00000222b50abf40] Forcing full internal H chroma due to input having non subsampled chroma
[swscaler @ 00000222b5089f80] [swscaler @ 00000222b50bef80] Forcing full internal H chroma due to input having non subsampled chroma
[auto_scale_0 @ 00000222b4eeb640] w:258 h:258 fmt:rgba sar:3779/3779 -> w:258 h:258 fmt:bgra sar:1/1 flags:0x0
[swscaler @ 00000222b5089f80] [swscaler @ 00000222b4f06fc0] Forcing full internal H chroma due to input having non subsampled chroma
[swscaler @ 00000222b5089f80] [swscaler @ 00000222b4f13f80] Forcing full internal H chroma due to input having non subsampled chroma
[swscaler @ 00000222b5089f80] [swscaler @ 00000222b509ef80] Forcing full internal H chroma due to input having non subsampled chroma
[swscaler @ 00000222b5089f80] [swscaler @ 00000222b50abf40] Forcing full internal H chroma due to input having non subsampled chroma
[swscaler @ 00000222b5089f80] [swscaler @ 00000222b50bef80] Forcing full internal H chroma due to input having non subsampled chroma
[auto_scale_0 @ 00000222b4eeb640] w:258 h:258 fmt:rgba sar:3779/3779 -> w:258 h:258 fmt:bgra sar:1/1 flags:0x0
cur_dts is invalid st:0 (0) [init:0 i_done:0 finish:0] (this is harmless if it occurs once at the start per stream)
    Last message repeated 7 times
[Parsed_palettegen_0 @ 00000222b4ee8580] 203(+1) colors generated out of 203 colors; ratio=1.000000
cur_dts is invalid st:0 (0) [init:0 i_done:0 finish:0] (this is harmless if it occurs once at the start per stream)
Output #0, image2, to 'C:/Users/pedro/DEV/jump-tales/characters/murasaki/gifs/palette.png':
  Metadata:
    encoder         : Lavf59.22.100
  Stream #0:0, 0, 1/12: Video: png, 1 reference frame, rgba(pc, gbr/unknown/unknown, progressive), 16x16 (0x0) [SAR 1:1 DAR 1:1], 0/1, q=2-31, 200 kb/s, 12 fps, 12 tbn
    Metadata:
      encoder         : Lavc59.26.100 png
Clipping frame in rate conversion by 0.000008
frame=    1 fps=0.0 q=0.0 size=N/A time=00:00:00.00 bitrate=N/A speed=   0x    cur_dts is invalid st:0 (0) [init:1 i_done:0 finish:0] (this is harmless if it occurs once at the start per stream)
[out_0_0 @ 00000222b4ee9d00] EOF on sink link out_0_0:default.
No more output streams to write to, finishing.
[image2 @ 00000222b4e9fb40] Opening 'C:/Users/pedro/DEV/jump-tales/characters/murasaki/gifs/palette.png' for writing
[file @ 00000222b4ea9900] Setting default whitelist 'file,crypto,data'
[AVIOContext @ 00000222b4ea9a80] Statistics: 774 bytes written, 0 seeks, 1 writeouts
frame=    1 fps=0.0 q=-0.0 Lsize=N/A time=00:00:00.08 bitrate=N/A speed=0.197x    
[AVIOContext @ 00000222b4e9cb80] Statistics: 347 bytes written, 0 seeks, 2 writeouts
video:1kB audio:0kB subtitle:0kB other streams:0kB global headers:0kB muxing overhead: unknown
Input file #0 (C:/Users/pedro/DEV/jump-tales/characters/murasaki/gifs/frame%04d.png):
  Input stream #0:0 (video): 8 packets read (42406 bytes); 8 frames decoded; 
  Total: 8 packets (42406 bytes) demuxed
Output file #0 (C:/Users/pedro/DEV/jump-tales/characters/murasaki/gifs/palette.png):
  Output stream #0:0 (video): 1 frames encoded; 1 packets muxed (774 bytes); 
  Total: 1 packets (774 bytes) muxed
8 frames successfully decoded, 0 decoding errors
